<svg xmlns="http://www.w3.org/2000/svg" width="1280" height="1458" viewBox="0 0 1280 1458" role="img">
<style>text{font-family:Inter,ui-sans-serif,system-ui,sans-serif}</style>
<rect width="100%" height="100%" rx="20" fill="#0b1220"/>
<text x="42" y="52" font-size="28" fill="#f8fafc" font-weight="700">Ormdantic pull request benchmark</text>
<text x="42" y="86" font-size="15" fill="#94a3b8" font-weight="500">sqlite · ci · lower latency is better</text>
<text x="42" y="119" font-size="17" fill="#5eead4" font-weight="700">Ormdantic vs SQLAlchemy 2.19x  ·  vs SQLModel 2.34x</text>
<text x="42" y="170" font-size="14" fill="#e2e8f0" font-weight="600">schema create/drop (0)</text>
<rect x="400" y="153" width="2.00" height="18" rx="4" fill="#14b8a6"/>
<text x="410.0" y="167" font-size="12" fill="#14b8a6" font-weight="600">Ormdantic 6.12 ms</text>
<rect x="675" y="153" width="2.30" height="18" rx="4" fill="#64748b"/>
<text x="685.2982287806765" y="167" font-size="12" fill="#64748b" font-weight="600">SQLAlchemy 17.36 ms</text>
<rect x="950" y="153" width="2.34" height="18" rx="4" fill="#8b5cf6"/>
<text x="960.3440632776743" y="167" font-size="12" fill="#8b5cf6" font-weight="600">SQLModel 17.71 ms</text>
<text x="42" y="193" font-size="12" fill="#94a3b8" font-weight="500">base/head 1.02x</text>
<text x="42" y="228" font-size="14" fill="#e2e8f0" font-weight="600">raw batch insert (10,000)</text>
<rect x="400" y="211" width="10.72" height="18" rx="4" fill="#14b8a6"/>
<text x="418.7176176162784" y="225" font-size="12" fill="#14b8a6" font-weight="600">Ormdantic 80.96 ms</text>
<rect x="675" y="211" width="17.36" height="18" rx="4" fill="#64748b"/>
<text x="700.3593375602911" y="225" font-size="12" fill="#64748b" font-weight="600">SQLAlchemy 131.14 ms</text>
<rect x="950" y="211" width="17.04" height="18" rx="4" fill="#8b5cf6"/>
<text x="975.040051771988" y="225" font-size="12" fill="#8b5cf6" font-weight="600">SQLModel 128.72 ms</text>
<text x="42" y="251" font-size="12" fill="#94a3b8" font-weight="500">base/head 0.98x</text>
<text x="42" y="286" font-size="14" fill="#e2e8f0" font-weight="600">orm insert models (10,000)</text>
<rect x="400" y="269" width="33.87" height="18" rx="4" fill="#14b8a6"/>
<text x="441.8709240405519" y="283" font-size="12" fill="#14b8a6" font-weight="600">Ormdantic 255.87 ms</text>
<rect x="675" y="269" width="55.73" height="18" rx="4" fill="#64748b"/>
<text x="738.7348206270465" y="283" font-size="12" fill="#64748b" font-weight="600">SQLAlchemy 421.03 ms</text>
<rect x="950" y="269" width="90.43" height="18" rx="4" fill="#8b5cf6"/>
<text x="1048.4291682242254" y="283" font-size="12" fill="#8b5cf6" font-weight="600">SQLModel 683.12 ms</text>
<text x="42" y="309" font-size="12" fill="#94a3b8" font-weight="500">base/head 1.00x</text>
<text x="42" y="344" font-size="14" fill="#e2e8f0" font-weight="600">orm update filtered (10,000)</text>
<rect x="400" y="327" width="2.00" height="18" rx="4" fill="#14b8a6"/>
<text x="410.0" y="341" font-size="12" fill="#14b8a6" font-weight="600">Ormdantic 5.49 ms</text>
<rect x="675" y="327" width="2.00" height="18" rx="4" fill="#64748b"/>
<text x="685.0" y="341" font-size="12" fill="#64748b" font-weight="600">SQLAlchemy 6.23 ms</text>
<rect x="950" y="327" width="2.00" height="18" rx="4" fill="#8b5cf6"/>
<text x="960.0" y="341" font-size="12" fill="#8b5cf6" font-weight="600">SQLModel 6.15 ms</text>
<text x="42" y="367" font-size="12" fill="#94a3b8" font-weight="500">base/head 0.99x</text>
<text x="42" y="402" font-size="14" fill="#e2e8f0" font-weight="600">orm upsert mixed (500)</text>
<rect x="400" y="385" width="3.94" height="18" rx="4" fill="#14b8a6"/>
<text x="411.93849174288135" y="399" font-size="12" fill="#14b8a6" font-weight="600">Ormdantic 29.75 ms</text>
<rect x="675" y="385" width="150.00" height="18" rx="4" fill="#64748b"/>
<text x="833.0" y="399" font-size="12" fill="#64748b" font-weight="600">SQLAlchemy 1133.13 ms</text>
<rect x="950" y="385" width="147.84" height="18" rx="4" fill="#8b5cf6"/>
<text x="1105.837043501464" y="399" font-size="12" fill="#8b5cf6" font-weight="600">SQLModel 1116.79 ms</text>
<text x="42" y="425" font-size="12" fill="#94a3b8" font-weight="500">base/head 1.01x</text>
<text x="42" y="460" font-size="14" fill="#e2e8f0" font-weight="600">orm delete filtered (10,000)</text>
<rect x="400" y="443" width="2.00" height="18" rx="4" fill="#14b8a6"/>
<text x="410.0" y="457" font-size="12" fill="#14b8a6" font-weight="600">Ormdantic 5.93 ms</text>
<rect x="675" y="443" width="2.00" height="18" rx="4" fill="#64748b"/>
<text x="685.0" y="457" font-size="12" fill="#64748b" font-weight="600">SQLAlchemy 7.47 ms</text>
<rect x="950" y="443" width="2.00" height="18" rx="4" fill="#8b5cf6"/>
<text x="960.0" y="457" font-size="12" fill="#8b5cf6" font-weight="600">SQLModel 7.56 ms</text>
<text x="42" y="483" font-size="12" fill="#94a3b8" font-weight="500">base/head 1.04x</text>
<text x="42" y="518" font-size="14" fill="#e2e8f0" font-weight="600">count all rows (10,000)</text>
<rect x="400" y="501" width="2.00" height="18" rx="4" fill="#14b8a6"/>
<text x="410.0" y="515" font-size="12" fill="#14b8a6" font-weight="600">Ormdantic 0.43 ms</text>
<rect x="675" y="501" width="2.00" height="18" rx="4" fill="#64748b"/>
<text x="685.0" y="515" font-size="12" fill="#64748b" font-weight="600">SQLAlchemy 1.50 ms</text>
<rect x="950" y="501" width="2.00" height="18" rx="4" fill="#8b5cf6"/>
<text x="960.0" y="515" font-size="12" fill="#8b5cf6" font-weight="600">SQLModel 1.48 ms</text>
<text x="42" y="541" font-size="12" fill="#94a3b8" font-weight="500">base/head 1.04x</text>
<text x="42" y="576" font-size="14" fill="#e2e8f0" font-weight="600">count equality filter (10,000)</text>
<rect x="400" y="559" width="2.00" height="18" rx="4" fill="#14b8a6"/>
<text x="410.0" y="573" font-size="12" fill="#14b8a6" font-weight="600">Ormdantic 0.44 ms</text>
<rect x="675" y="559" width="2.00" height="18" rx="4" fill="#64748b"/>
<text x="685.0" y="573" font-size="12" fill="#64748b" font-weight="600">SQLAlchemy 1.80 ms</text>
<rect x="950" y="559" width="2.00" height="18" rx="4" fill="#8b5cf6"/>
<text x="960.0" y="573" font-size="12" fill="#8b5cf6" font-weight="600">SQLModel 1.73 ms</text>
<text x="42" y="599" font-size="12" fill="#94a3b8" font-weight="500">base/head 1.02x</text>
<text x="42" y="634" font-size="14" fill="#e2e8f0" font-weight="600">count range filter (10,000)</text>
<rect x="400" y="617" width="2.00" height="18" rx="4" fill="#14b8a6"/>
<text x="410.0" y="631" font-size="12" fill="#14b8a6" font-weight="600">Ormdantic 0.54 ms</text>
<rect x="675" y="617" width="2.00" height="18" rx="4" fill="#64748b"/>
<text x="685.0" y="631" font-size="12" fill="#64748b" font-weight="600">SQLAlchemy 1.82 ms</text>
<rect x="950" y="617" width="2.00" height="18" rx="4" fill="#8b5cf6"/>
<text x="960.0" y="631" font-size="12" fill="#8b5cf6" font-weight="600">SQLModel 1.78 ms</text>
<text x="42" y="657" font-size="12" fill="#94a3b8" font-weight="500">base/head 0.99x</text>
<text x="42" y="692" font-size="14" fill="#e2e8f0" font-weight="600">aggregate filtered rows (10,000)</text>
<rect x="400" y="675" width="2.00" height="18" rx="4" fill="#14b8a6"/>
<text x="410.0" y="689" font-size="12" fill="#14b8a6" font-weight="600">Ormdantic 0.97 ms</text>
<rect x="675" y="675" width="2.00" height="18" rx="4" fill="#64748b"/>
<text x="685.0" y="689" font-size="12" fill="#64748b" font-weight="600">SQLAlchemy 2.26 ms</text>
<rect x="950" y="675" width="2.00" height="18" rx="4" fill="#8b5cf6"/>
<text x="960.0" y="689" font-size="12" fill="#8b5cf6" font-weight="600">SQLModel 2.22 ms</text>
<text x="42" y="715" font-size="12" fill="#94a3b8" font-weight="500">base/head 0.92x</text>
<text x="42" y="750" font-size="14" fill="#e2e8f0" font-weight="600">scalar projection read (10,000)</text>
<rect x="400" y="733" width="2.00" height="18" rx="4" fill="#14b8a6"/>
<text x="410.0" y="747" font-size="12" fill="#14b8a6" font-weight="600">Ormdantic 1.61 ms</text>
<rect x="675" y="733" width="2.00" height="18" rx="4" fill="#64748b"/>
<text x="685.0" y="747" font-size="12" fill="#64748b" font-weight="600">SQLAlchemy 3.42 ms</text>
<rect x="950" y="733" width="2.00" height="18" rx="4" fill="#8b5cf6"/>
<text x="960.0" y="747" font-size="12" fill="#8b5cf6" font-weight="600">SQLModel 3.46 ms</text>
<text x="42" y="773" font-size="12" fill="#94a3b8" font-weight="500">base/head 0.96x</text>
<text x="42" y="808" font-size="14" fill="#e2e8f0" font-weight="600">batched primary-key lookup (500)</text>
<rect x="400" y="791" width="18.74" height="18" rx="4" fill="#14b8a6"/>
<text x="426.74321787963385" y="805" font-size="12" fill="#14b8a6" font-weight="600">Ormdantic 141.59 ms</text>
<rect x="675" y="791" width="38.60" height="18" rx="4" fill="#64748b"/>
<text x="721.604435541711" y="805" font-size="12" fill="#64748b" font-weight="600">SQLAlchemy 291.63 ms</text>
<rect x="950" y="791" width="38.96" height="18" rx="4" fill="#8b5cf6"/>
<text x="996.9569762039866" y="805" font-size="12" fill="#8b5cf6" font-weight="600">SQLModel 294.29 ms</text>
<text x="42" y="831" font-size="12" fill="#94a3b8" font-weight="500">base/head 0.99x</text>
<text x="42" y="866" font-size="14" fill="#e2e8f0" font-weight="600">paginated find_many (500)</text>
<rect x="400" y="849" width="2.00" height="18" rx="4" fill="#14b8a6"/>
<text x="410.0" y="863" font-size="12" fill="#14b8a6" font-weight="600">Ormdantic 2.93 ms</text>
<rect x="675" y="849" width="2.00" height="18" rx="4" fill="#64748b"/>
<text x="685.0" y="863" font-size="12" fill="#64748b" font-weight="600">SQLAlchemy 4.77 ms</text>
<rect x="950" y="849" width="2.00" height="18" rx="4" fill="#8b5cf6"/>
<text x="960.0" y="863" font-size="12" fill="#8b5cf6" font-weight="600">SQLModel 5.64 ms</text>
<text x="42" y="889" font-size="12" fill="#94a3b8" font-weight="500">base/head 0.99x</text>
<text x="42" y="924" font-size="14" fill="#e2e8f0" font-weight="600">ordered find_many (500)</text>
<rect x="400" y="907" width="2.00" height="18" rx="4" fill="#14b8a6"/>
<text x="410.0" y="921" font-size="12" fill="#14b8a6" font-weight="600">Ormdantic 3.95 ms</text>
<rect x="675" y="907" width="2.00" height="18" rx="4" fill="#64748b"/>
<text x="685.0" y="921" font-size="12" fill="#64748b" font-weight="600">SQLAlchemy 5.81 ms</text>
<rect x="950" y="907" width="2.00" height="18" rx="4" fill="#8b5cf6"/>
<text x="960.0" y="921" font-size="12" fill="#8b5cf6" font-weight="600">SQLModel 6.60 ms</text>
<text x="42" y="947" font-size="12" fill="#94a3b8" font-weight="500">base/head 0.91x</text>
<text x="42" y="982" font-size="14" fill="#e2e8f0" font-weight="600">hydrate flat rows (500)</text>
<rect x="400" y="965" width="2.00" height="18" rx="4" fill="#14b8a6"/>
<text x="410.0" y="979" font-size="12" fill="#14b8a6" font-weight="600">Ormdantic 2.84 ms</text>
<rect x="675" y="965" width="2.00" height="18" rx="4" fill="#64748b"/>
<text x="685.0" y="979" font-size="12" fill="#64748b" font-weight="600">SQLAlchemy 4.56 ms</text>
<rect x="950" y="965" width="2.00" height="18" rx="4" fill="#8b5cf6"/>
<text x="960.0" y="979" font-size="12" fill="#8b5cf6" font-weight="600">SQLModel 5.56 ms</text>
<text x="42" y="1005" font-size="12" fill="#94a3b8" font-weight="500">base/head 0.96x</text>
<text x="42" y="1040" font-size="14" fill="#e2e8f0" font-weight="600">serialize simple payloads (500) · diagnostic</text>
<rect x="400" y="1023" width="2.00" height="18" rx="4" fill="#14b8a6"/>
<text x="410.0" y="1037" font-size="12" fill="#14b8a6" font-weight="600">Ormdantic 0.77 ms</text>
<rect x="675" y="1023" width="2.00" height="18" rx="4" fill="#64748b"/>
<text x="685.0" y="1037" font-size="12" fill="#64748b" font-weight="600">SQLAlchemy 0.69 ms</text>
<rect x="950" y="1023" width="2.00" height="18" rx="4" fill="#8b5cf6"/>
<text x="960.0" y="1037" font-size="12" fill="#8b5cf6" font-weight="600">SQLModel 1.48 ms</text>
<text x="42" y="1063" font-size="12" fill="#94a3b8" font-weight="500">base/head 0.95x</text>
<text x="42" y="1098" font-size="14" fill="#e2e8f0" font-weight="600">serialize nested payloads (400) · diagnostic</text>
<rect x="400" y="1081" width="2.00" height="18" rx="4" fill="#14b8a6"/>
<text x="410.0" y="1095" font-size="12" fill="#14b8a6" font-weight="600">Ormdantic 0.40 ms</text>
<rect x="675" y="1081" width="2.00" height="18" rx="4" fill="#64748b"/>
<text x="685.0" y="1095" font-size="12" fill="#64748b" font-weight="600">SQLAlchemy 0.39 ms</text>
<rect x="950" y="1081" width="2.00" height="18" rx="4" fill="#8b5cf6"/>
<text x="960.0" y="1095" font-size="12" fill="#8b5cf6" font-weight="600">SQLModel 0.47 ms</text>
<text x="42" y="1121" font-size="12" fill="#94a3b8" font-weight="500">base/head 0.93x</text>
<text x="42" y="1156" font-size="14" fill="#e2e8f0" font-weight="600">hydrate relationship results (400)</text>
<rect x="400" y="1139" width="2.00" height="18" rx="4" fill="#14b8a6"/>
<text x="410.0" y="1153" font-size="12" fill="#14b8a6" font-weight="600">Ormdantic 7.60 ms</text>
<rect x="675" y="1139" width="2.00" height="18" rx="4" fill="#64748b"/>
<text x="685.0" y="1153" font-size="12" fill="#64748b" font-weight="600">SQLAlchemy 7.99 ms</text>
<rect x="950" y="1139" width="2.00" height="18" rx="4" fill="#8b5cf6"/>
<text x="960.0" y="1153" font-size="12" fill="#8b5cf6" font-weight="600">SQLModel 8.83 ms</text>
<text x="42" y="1179" font-size="12" fill="#94a3b8" font-weight="500">base/head 0.99x</text>
<text x="42" y="1214" font-size="14" fill="#e2e8f0" font-weight="600">one-to-many relationship loading (400)</text>
<rect x="400" y="1197" width="2.00" height="18" rx="4" fill="#14b8a6"/>
<text x="410.0" y="1211" font-size="12" fill="#14b8a6" font-weight="600">Ormdantic 2.94 ms</text>
<rect x="675" y="1197" width="2.00" height="18" rx="4" fill="#64748b"/>
<text x="685.0" y="1211" font-size="12" fill="#64748b" font-weight="600">SQLAlchemy 4.99 ms</text>
<rect x="950" y="1197" width="2.00" height="18" rx="4" fill="#8b5cf6"/>
<text x="960.0" y="1211" font-size="12" fill="#8b5cf6" font-weight="600">SQLModel 5.21 ms</text>
<text x="42" y="1237" font-size="12" fill="#94a3b8" font-weight="500">base/head 0.95x</text>
<text x="42" y="1272" font-size="14" fill="#e2e8f0" font-weight="600">many-to-one relationship loading (400)</text>
<rect x="400" y="1255" width="2.00" height="18" rx="4" fill="#14b8a6"/>
<text x="410.0" y="1269" font-size="12" fill="#14b8a6" font-weight="600">Ormdantic 3.00 ms</text>
<rect x="675" y="1255" width="2.00" height="18" rx="4" fill="#64748b"/>
<text x="685.0" y="1269" font-size="12" fill="#64748b" font-weight="600">SQLAlchemy 4.43 ms</text>
<rect x="950" y="1255" width="2.00" height="18" rx="4" fill="#8b5cf6"/>
<text x="960.0" y="1269" font-size="12" fill="#8b5cf6" font-weight="600">SQLModel 4.91 ms</text>
<text x="42" y="1295" font-size="12" fill="#94a3b8" font-weight="500">base/head 1.00x</text>
<text x="42" y="1330" font-size="14" fill="#e2e8f0" font-weight="600">nested relationship loading (400)</text>
<rect x="400" y="1313" width="2.00" height="18" rx="4" fill="#14b8a6"/>
<text x="410.0" y="1327" font-size="12" fill="#14b8a6" font-weight="600">Ormdantic 6.57 ms</text>
<rect x="675" y="1313" width="2.00" height="18" rx="4" fill="#64748b"/>
<text x="685.0" y="1327" font-size="12" fill="#64748b" font-weight="600">SQLAlchemy 9.67 ms</text>
<rect x="950" y="1313" width="2.00" height="18" rx="4" fill="#8b5cf6"/>
<text x="960.0" y="1327" font-size="12" fill="#8b5cf6" font-weight="600">SQLModel 10.76 ms</text>
<text x="42" y="1353" font-size="12" fill="#94a3b8" font-weight="500">base/head 0.99x</text>
</svg>
