<svg xmlns="http://www.w3.org/2000/svg" width="1280" height="1458" viewBox="0 0 1280 1458" role="img">
<style>text{font-family:Inter,ui-sans-serif,system-ui,sans-serif}</style>
<rect width="100%" height="100%" rx="20" fill="#0b1220"/>
<text x="42" y="52" font-size="28" fill="#f8fafc" font-weight="700">Ormdantic pull request benchmark</text>
<text x="42" y="86" font-size="15" fill="#94a3b8" font-weight="500">sqlite · ci · lower latency is better</text>
<text x="42" y="119" font-size="17" fill="#5eead4" font-weight="700">Ormdantic vs SQLAlchemy 2.27x  ·  vs SQLModel 2.44x</text>
<text x="42" y="170" font-size="14" fill="#e2e8f0" font-weight="600">schema create/drop (0)</text>
<rect x="400" y="153" width="2.00" height="18" rx="4" fill="#14b8a6"/>
<text x="410.0" y="167" font-size="12" fill="#14b8a6" font-weight="600">Ormdantic 7.18 ms</text>
<rect x="675" y="153" width="2.35" height="18" rx="4" fill="#64748b"/>
<text x="685.345776480586" y="167" font-size="12" fill="#64748b" font-weight="600">SQLAlchemy 18.69 ms</text>
<rect x="950" y="153" width="2.56" height="18" rx="4" fill="#8b5cf6"/>
<text x="960.5558557166754" y="167" font-size="12" fill="#8b5cf6" font-weight="600">SQLModel 20.36 ms</text>
<text x="42" y="193" font-size="12" fill="#94a3b8" font-weight="500">base/head 0.93x</text>
<text x="42" y="228" font-size="14" fill="#e2e8f0" font-weight="600">raw batch insert (10,000)</text>
<rect x="400" y="211" width="10.69" height="18" rx="4" fill="#14b8a6"/>
<text x="418.6945107417924" y="225" font-size="12" fill="#14b8a6" font-weight="600">Ormdantic 85.19 ms</text>
<rect x="675" y="211" width="18.77" height="18" rx="4" fill="#64748b"/>
<text x="701.7680797942874" y="225" font-size="12" fill="#64748b" font-weight="600">SQLAlchemy 149.50 ms</text>
<rect x="950" y="211" width="18.85" height="18" rx="4" fill="#8b5cf6"/>
<text x="976.845982796178" y="225" font-size="12" fill="#8b5cf6" font-weight="600">SQLModel 150.12 ms</text>
<text x="42" y="251" font-size="12" fill="#94a3b8" font-weight="500">base/head 0.98x</text>
<text x="42" y="286" font-size="14" fill="#e2e8f0" font-weight="600">orm insert models (10,000)</text>
<rect x="400" y="269" width="36.68" height="18" rx="4" fill="#14b8a6"/>
<text x="444.6815599041092" y="283" font-size="12" fill="#14b8a6" font-weight="600">Ormdantic 292.18 ms</text>
<rect x="675" y="269" width="61.09" height="18" rx="4" fill="#64748b"/>
<text x="744.0906222660491" y="283" font-size="12" fill="#64748b" font-weight="600">SQLAlchemy 486.61 ms</text>
<rect x="950" y="269" width="95.89" height="18" rx="4" fill="#8b5cf6"/>
<text x="1053.8901401530154" y="283" font-size="12" fill="#8b5cf6" font-weight="600">SQLModel 763.81 ms</text>
<text x="42" y="309" font-size="12" fill="#94a3b8" font-weight="500">base/head 0.96x</text>
<text x="42" y="344" font-size="14" fill="#e2e8f0" font-weight="600">orm update filtered (10,000)</text>
<rect x="400" y="327" width="2.00" height="18" rx="4" fill="#14b8a6"/>
<text x="410.0" y="341" font-size="12" fill="#14b8a6" font-weight="600">Ormdantic 6.08 ms</text>
<rect x="675" y="327" width="2.00" height="18" rx="4" fill="#64748b"/>
<text x="685.0" y="341" font-size="12" fill="#64748b" font-weight="600">SQLAlchemy 6.91 ms</text>
<rect x="950" y="327" width="2.00" height="18" rx="4" fill="#8b5cf6"/>
<text x="960.0" y="341" font-size="12" fill="#8b5cf6" font-weight="600">SQLModel 7.17 ms</text>
<text x="42" y="367" font-size="12" fill="#94a3b8" font-weight="500">base/head 0.93x</text>
<text x="42" y="402" font-size="14" fill="#e2e8f0" font-weight="600">orm upsert mixed (500)</text>
<rect x="400" y="385" width="4.13" height="18" rx="4" fill="#14b8a6"/>
<text x="412.1284759439264" y="399" font-size="12" fill="#14b8a6" font-weight="600">Ormdantic 32.89 ms</text>
<rect x="675" y="385" width="143.29" height="18" rx="4" fill="#64748b"/>
<text x="826.291950689937" y="399" font-size="12" fill="#64748b" font-weight="600">SQLAlchemy 1141.38 ms</text>
<rect x="950" y="385" width="150.00" height="18" rx="4" fill="#8b5cf6"/>
<text x="1108.0" y="399" font-size="12" fill="#8b5cf6" font-weight="600">SQLModel 1194.81 ms</text>
<text x="42" y="425" font-size="12" fill="#94a3b8" font-weight="500">base/head 0.94x</text>
<text x="42" y="460" font-size="14" fill="#e2e8f0" font-weight="600">orm delete filtered (10,000)</text>
<rect x="400" y="443" width="2.00" height="18" rx="4" fill="#14b8a6"/>
<text x="410.0" y="457" font-size="12" fill="#14b8a6" font-weight="600">Ormdantic 6.44 ms</text>
<rect x="675" y="443" width="2.00" height="18" rx="4" fill="#64748b"/>
<text x="685.0" y="457" font-size="12" fill="#64748b" font-weight="600">SQLAlchemy 8.52 ms</text>
<rect x="950" y="443" width="2.00" height="18" rx="4" fill="#8b5cf6"/>
<text x="960.0" y="457" font-size="12" fill="#8b5cf6" font-weight="600">SQLModel 8.63 ms</text>
<text x="42" y="483" font-size="12" fill="#94a3b8" font-weight="500">base/head 0.97x</text>
<text x="42" y="518" font-size="14" fill="#e2e8f0" font-weight="600">count all rows (10,000)</text>
<rect x="400" y="501" width="2.00" height="18" rx="4" fill="#14b8a6"/>
<text x="410.0" y="515" font-size="12" fill="#14b8a6" font-weight="600">Ormdantic 0.46 ms</text>
<rect x="675" y="501" width="2.00" height="18" rx="4" fill="#64748b"/>
<text x="685.0" y="515" font-size="12" fill="#64748b" font-weight="600">SQLAlchemy 1.77 ms</text>
<rect x="950" y="501" width="2.00" height="18" rx="4" fill="#8b5cf6"/>
<text x="960.0" y="515" font-size="12" fill="#8b5cf6" font-weight="600">SQLModel 1.78 ms</text>
<text x="42" y="541" font-size="12" fill="#94a3b8" font-weight="500">base/head 0.95x</text>
<text x="42" y="576" font-size="14" fill="#e2e8f0" font-weight="600">count equality filter (10,000)</text>
<rect x="400" y="559" width="2.00" height="18" rx="4" fill="#14b8a6"/>
<text x="410.0" y="573" font-size="12" fill="#14b8a6" font-weight="600">Ormdantic 0.51 ms</text>
<rect x="675" y="559" width="2.00" height="18" rx="4" fill="#64748b"/>
<text x="685.0" y="573" font-size="12" fill="#64748b" font-weight="600">SQLAlchemy 2.00 ms</text>
<rect x="950" y="559" width="2.00" height="18" rx="4" fill="#8b5cf6"/>
<text x="960.0" y="573" font-size="12" fill="#8b5cf6" font-weight="600">SQLModel 1.95 ms</text>
<text x="42" y="599" font-size="12" fill="#94a3b8" font-weight="500">base/head 0.96x</text>
<text x="42" y="634" font-size="14" fill="#e2e8f0" font-weight="600">count range filter (10,000)</text>
<rect x="400" y="617" width="2.00" height="18" rx="4" fill="#14b8a6"/>
<text x="410.0" y="631" font-size="12" fill="#14b8a6" font-weight="600">Ormdantic 0.58 ms</text>
<rect x="675" y="617" width="2.00" height="18" rx="4" fill="#64748b"/>
<text x="685.0" y="631" font-size="12" fill="#64748b" font-weight="600">SQLAlchemy 2.07 ms</text>
<rect x="950" y="617" width="2.00" height="18" rx="4" fill="#8b5cf6"/>
<text x="960.0" y="631" font-size="12" fill="#8b5cf6" font-weight="600">SQLModel 2.15 ms</text>
<text x="42" y="657" font-size="12" fill="#94a3b8" font-weight="500">base/head 0.91x</text>
<text x="42" y="692" font-size="14" fill="#e2e8f0" font-weight="600">aggregate filtered rows (10,000)</text>
<rect x="400" y="675" width="2.00" height="18" rx="4" fill="#14b8a6"/>
<text x="410.0" y="689" font-size="12" fill="#14b8a6" font-weight="600">Ormdantic 0.99 ms</text>
<rect x="675" y="675" width="2.00" height="18" rx="4" fill="#64748b"/>
<text x="685.0" y="689" font-size="12" fill="#64748b" font-weight="600">SQLAlchemy 2.48 ms</text>
<rect x="950" y="675" width="2.00" height="18" rx="4" fill="#8b5cf6"/>
<text x="960.0" y="689" font-size="12" fill="#8b5cf6" font-weight="600">SQLModel 2.53 ms</text>
<text x="42" y="715" font-size="12" fill="#94a3b8" font-weight="500">base/head 0.94x</text>
<text x="42" y="750" font-size="14" fill="#e2e8f0" font-weight="600">scalar projection read (10,000)</text>
<rect x="400" y="733" width="2.00" height="18" rx="4" fill="#14b8a6"/>
<text x="410.0" y="747" font-size="12" fill="#14b8a6" font-weight="600">Ormdantic 1.73 ms</text>
<rect x="675" y="733" width="2.00" height="18" rx="4" fill="#64748b"/>
<text x="685.0" y="747" font-size="12" fill="#64748b" font-weight="600">SQLAlchemy 3.92 ms</text>
<rect x="950" y="733" width="2.00" height="18" rx="4" fill="#8b5cf6"/>
<text x="960.0" y="747" font-size="12" fill="#8b5cf6" font-weight="600">SQLModel 4.09 ms</text>
<text x="42" y="773" font-size="12" fill="#94a3b8" font-weight="500">base/head 0.97x</text>
<text x="42" y="808" font-size="14" fill="#e2e8f0" font-weight="600">batched primary-key lookup (500)</text>
<rect x="400" y="791" width="18.24" height="18" rx="4" fill="#14b8a6"/>
<text x="426.2382444711623" y="805" font-size="12" fill="#14b8a6" font-weight="600">Ormdantic 145.28 ms</text>
<rect x="675" y="791" width="38.59" height="18" rx="4" fill="#64748b"/>
<text x="721.5911792549995" y="805" font-size="12" fill="#64748b" font-weight="600">SQLAlchemy 307.39 ms</text>
<rect x="950" y="791" width="40.51" height="18" rx="4" fill="#8b5cf6"/>
<text x="998.5098611556415" y="805" font-size="12" fill="#8b5cf6" font-weight="600">SQLModel 322.68 ms</text>
<text x="42" y="831" font-size="12" fill="#94a3b8" font-weight="500">base/head 0.97x</text>
<text x="42" y="866" font-size="14" fill="#e2e8f0" font-weight="600">paginated find_many (500)</text>
<rect x="400" y="849" width="2.00" height="18" rx="4" fill="#14b8a6"/>
<text x="410.0" y="863" font-size="12" fill="#14b8a6" font-weight="600">Ormdantic 3.13 ms</text>
<rect x="675" y="849" width="2.00" height="18" rx="4" fill="#64748b"/>
<text x="685.0" y="863" font-size="12" fill="#64748b" font-weight="600">SQLAlchemy 5.25 ms</text>
<rect x="950" y="849" width="2.00" height="18" rx="4" fill="#8b5cf6"/>
<text x="960.0" y="863" font-size="12" fill="#8b5cf6" font-weight="600">SQLModel 5.84 ms</text>
<text x="42" y="889" font-size="12" fill="#94a3b8" font-weight="500">base/head 0.91x</text>
<text x="42" y="924" font-size="14" fill="#e2e8f0" font-weight="600">ordered find_many (500)</text>
<rect x="400" y="907" width="2.00" height="18" rx="4" fill="#14b8a6"/>
<text x="410.0" y="921" font-size="12" fill="#14b8a6" font-weight="600">Ormdantic 4.22 ms</text>
<rect x="675" y="907" width="2.00" height="18" rx="4" fill="#64748b"/>
<text x="685.0" y="921" font-size="12" fill="#64748b" font-weight="600">SQLAlchemy 6.50 ms</text>
<rect x="950" y="907" width="2.00" height="18" rx="4" fill="#8b5cf6"/>
<text x="960.0" y="921" font-size="12" fill="#8b5cf6" font-weight="600">SQLModel 7.17 ms</text>
<text x="42" y="947" font-size="12" fill="#94a3b8" font-weight="500">base/head 0.91x</text>
<text x="42" y="982" font-size="14" fill="#e2e8f0" font-weight="600">hydrate flat rows (500)</text>
<rect x="400" y="965" width="2.00" height="18" rx="4" fill="#14b8a6"/>
<text x="410.0" y="979" font-size="12" fill="#14b8a6" font-weight="600">Ormdantic 3.28 ms</text>
<rect x="675" y="965" width="2.00" height="18" rx="4" fill="#64748b"/>
<text x="685.0" y="979" font-size="12" fill="#64748b" font-weight="600">SQLAlchemy 5.47 ms</text>
<rect x="950" y="965" width="2.00" height="18" rx="4" fill="#8b5cf6"/>
<text x="960.0" y="979" font-size="12" fill="#8b5cf6" font-weight="600">SQLModel 6.28 ms</text>
<text x="42" y="1005" font-size="12" fill="#94a3b8" font-weight="500">base/head 0.88x</text>
<text x="42" y="1040" font-size="14" fill="#e2e8f0" font-weight="600">serialize simple payloads (500) · diagnostic</text>
<rect x="400" y="1023" width="2.00" height="18" rx="4" fill="#14b8a6"/>
<text x="410.0" y="1037" font-size="12" fill="#14b8a6" font-weight="600">Ormdantic 0.83 ms</text>
<rect x="675" y="1023" width="2.00" height="18" rx="4" fill="#64748b"/>
<text x="685.0" y="1037" font-size="12" fill="#64748b" font-weight="600">SQLAlchemy 0.75 ms</text>
<rect x="950" y="1023" width="2.00" height="18" rx="4" fill="#8b5cf6"/>
<text x="960.0" y="1037" font-size="12" fill="#8b5cf6" font-weight="600">SQLModel 1.78 ms</text>
<text x="42" y="1063" font-size="12" fill="#94a3b8" font-weight="500">base/head 0.90x</text>
<text x="42" y="1098" font-size="14" fill="#e2e8f0" font-weight="600">serialize nested payloads (400) · diagnostic</text>
<rect x="400" y="1081" width="2.00" height="18" rx="4" fill="#14b8a6"/>
<text x="410.0" y="1095" font-size="12" fill="#14b8a6" font-weight="600">Ormdantic 0.40 ms</text>
<rect x="675" y="1081" width="2.00" height="18" rx="4" fill="#64748b"/>
<text x="685.0" y="1095" font-size="12" fill="#64748b" font-weight="600">SQLAlchemy 0.42 ms</text>
<rect x="950" y="1081" width="2.00" height="18" rx="4" fill="#8b5cf6"/>
<text x="960.0" y="1095" font-size="12" fill="#8b5cf6" font-weight="600">SQLModel 0.60 ms</text>
<text x="42" y="1121" font-size="12" fill="#94a3b8" font-weight="500">base/head 1.07x</text>
<text x="42" y="1156" font-size="14" fill="#e2e8f0" font-weight="600">hydrate relationship results (400)</text>
<rect x="400" y="1139" width="2.00" height="18" rx="4" fill="#14b8a6"/>
<text x="410.0" y="1153" font-size="12" fill="#14b8a6" font-weight="600">Ormdantic 8.04 ms</text>
<rect x="675" y="1139" width="2.00" height="18" rx="4" fill="#64748b"/>
<text x="685.0" y="1153" font-size="12" fill="#64748b" font-weight="600">SQLAlchemy 9.28 ms</text>
<rect x="950" y="1139" width="2.00" height="18" rx="4" fill="#8b5cf6"/>
<text x="960.0" y="1153" font-size="12" fill="#8b5cf6" font-weight="600">SQLModel 9.57 ms</text>
<text x="42" y="1179" font-size="12" fill="#94a3b8" font-weight="500">base/head 0.96x</text>
<text x="42" y="1214" font-size="14" fill="#e2e8f0" font-weight="600">one-to-many relationship loading (400)</text>
<rect x="400" y="1197" width="2.00" height="18" rx="4" fill="#14b8a6"/>
<text x="410.0" y="1211" font-size="12" fill="#14b8a6" font-weight="600">Ormdantic 3.04 ms</text>
<rect x="675" y="1197" width="2.00" height="18" rx="4" fill="#64748b"/>
<text x="685.0" y="1211" font-size="12" fill="#64748b" font-weight="600">SQLAlchemy 5.60 ms</text>
<rect x="950" y="1197" width="2.00" height="18" rx="4" fill="#8b5cf6"/>
<text x="960.0" y="1211" font-size="12" fill="#8b5cf6" font-weight="600">SQLModel 5.92 ms</text>
<text x="42" y="1237" font-size="12" fill="#94a3b8" font-weight="500">base/head 0.97x</text>
<text x="42" y="1272" font-size="14" fill="#e2e8f0" font-weight="600">many-to-one relationship loading (400)</text>
<rect x="400" y="1255" width="2.00" height="18" rx="4" fill="#14b8a6"/>
<text x="410.0" y="1269" font-size="12" fill="#14b8a6" font-weight="600">Ormdantic 3.17 ms</text>
<rect x="675" y="1255" width="2.00" height="18" rx="4" fill="#64748b"/>
<text x="685.0" y="1269" font-size="12" fill="#64748b" font-weight="600">SQLAlchemy 5.17 ms</text>
<rect x="950" y="1255" width="2.00" height="18" rx="4" fill="#8b5cf6"/>
<text x="960.0" y="1269" font-size="12" fill="#8b5cf6" font-weight="600">SQLModel 5.53 ms</text>
<text x="42" y="1295" font-size="12" fill="#94a3b8" font-weight="500">base/head 0.97x</text>
<text x="42" y="1330" font-size="14" fill="#e2e8f0" font-weight="600">nested relationship loading (400)</text>
<rect x="400" y="1313" width="2.00" height="18" rx="4" fill="#14b8a6"/>
<text x="410.0" y="1327" font-size="12" fill="#14b8a6" font-weight="600">Ormdantic 7.08 ms</text>
<rect x="675" y="1313" width="2.00" height="18" rx="4" fill="#64748b"/>
<text x="685.0" y="1327" font-size="12" fill="#64748b" font-weight="600">SQLAlchemy 10.67 ms</text>
<rect x="950" y="1313" width="2.00" height="18" rx="4" fill="#8b5cf6"/>
<text x="960.0" y="1327" font-size="12" fill="#8b5cf6" font-weight="600">SQLModel 11.88 ms</text>
<text x="42" y="1353" font-size="12" fill="#94a3b8" font-weight="500">base/head 0.93x</text>
</svg>
