<svg xmlns="http://www.w3.org/2000/svg" width="1240" height="918" viewBox="0 0 1240 918" role="img">
<style>text{font-family:Inter,ui-sans-serif,system-ui,-apple-system,BlinkMacSystemFont,'Segoe UI',sans-serif;letter-spacing:0}</style>
<text x="40.0" y="48.0" font-size="27" font-weight="700" fill="#111827">Ormdantic, SQLAlchemy, and SQLModel median latency</text>
<text x="40.0" y="80.0" font-size="15" font-weight="400" fill="#4b5563">Lower is better. Bars use median wall time; labels show exact milliseconds.</text>
<rect x="330.0" y="89.0" width="18" height="12" rx="3" fill="#0f766e"/><text x="356.0" y="102.0" font-size="14" font-weight="700" fill="#374151">Ormdantic</text><rect x="485.0" y="89.0" width="18" height="12" rx="3" fill="#64748b"/><text x="511.0" y="102.0" font-size="14" font-weight="700" fill="#374151">SQLAlchemy</text><rect x="640.0" y="89.0" width="18" height="12" rx="3" fill="#7c3aed"/><text x="666.0" y="102.0" font-size="14" font-weight="700" fill="#374151">SQLModel</text>
<text x="40.0" y="167.0" font-size="15" font-weight="700" fill="#111827">write insert batches (20,000 rows)</text>
<rect x="330.0" y="134.0" width="182.7" height="18.0" rx="4" fill="#0f766e"/>
<text x="522.7" y="149.0" font-size="13" font-weight="700" fill="#0f766e">Ormdantic 47.78 ms</text>
<rect x="330.0" y="160.0" width="194.1" height="18.0" rx="4" fill="#64748b"/>
<text x="534.1" y="175.0" font-size="13" font-weight="700" fill="#64748b">SQLAlchemy 50.78 ms</text>
<rect x="330.0" y="186.0" width="193.1" height="18.0" rx="4" fill="#7c3aed"/>
<text x="533.1" y="201.0" font-size="13" font-weight="700" fill="#7c3aed">SQLModel 50.50 ms</text>
<text x="40.0" y="269.0" font-size="15" font-weight="700" fill="#111827">count all rows (20,000 rows)</text>
<rect x="330.0" y="236.0" width="2.0" height="18.0" rx="4" fill="#0f766e"/>
<text x="340.4" y="251.0" font-size="13" font-weight="700" fill="#0f766e">Ormdantic 0.11 ms</text>
<rect x="330.0" y="262.0" width="3.1" height="18.0" rx="4" fill="#64748b"/>
<text x="343.1" y="277.0" font-size="13" font-weight="700" fill="#64748b">SQLAlchemy 0.81 ms</text>
<rect x="330.0" y="288.0" width="3.0" height="18.0" rx="4" fill="#7c3aed"/>
<text x="343.0" y="303.0" font-size="13" font-weight="700" fill="#7c3aed">SQLModel 0.77 ms</text>
<text x="40.0" y="371.0" font-size="15" font-weight="700" fill="#111827">count filtered (20,000 rows)</text>
<rect x="330.0" y="338.0" width="2.0" height="18.0" rx="4" fill="#0f766e"/>
<text x="340.5" y="353.0" font-size="13" font-weight="700" fill="#0f766e">Ormdantic 0.12 ms</text>
<rect x="330.0" y="364.0" width="3.5" height="18.0" rx="4" fill="#64748b"/>
<text x="343.5" y="379.0" font-size="13" font-weight="700" fill="#64748b">SQLAlchemy 0.93 ms</text>
<rect x="330.0" y="390.0" width="3.7" height="18.0" rx="4" fill="#7c3aed"/>
<text x="343.7" y="405.0" font-size="13" font-weight="700" fill="#7c3aed">SQLModel 0.96 ms</text>
<text x="40.0" y="473.0" font-size="15" font-weight="700" fill="#111827">count score range (20,000 rows)</text>
<rect x="330.0" y="440.0" width="2.0" height="18.0" rx="4" fill="#0f766e"/>
<text x="340.6" y="455.0" font-size="13" font-weight="700" fill="#0f766e">Ormdantic 0.15 ms</text>
<rect x="330.0" y="466.0" width="3.6" height="18.0" rx="4" fill="#64748b"/>
<text x="343.6" y="481.0" font-size="13" font-weight="700" fill="#64748b">SQLAlchemy 0.93 ms</text>
<rect x="330.0" y="492.0" width="3.4" height="18.0" rx="4" fill="#7c3aed"/>
<text x="343.4" y="507.0" font-size="13" font-weight="700" fill="#7c3aed">SQLModel 0.89 ms</text>
<text x="40.0" y="575.0" font-size="15" font-weight="700" fill="#111827">aggregate filtered (20,000 rows)</text>
<rect x="330.0" y="542.0" width="2.0" height="18.0" rx="4" fill="#0f766e"/>
<text x="341.9" y="557.0" font-size="13" font-weight="700" fill="#0f766e">Ormdantic 0.51 ms</text>
<rect x="330.0" y="568.0" width="7.4" height="18.0" rx="4" fill="#64748b"/>
<text x="347.4" y="583.0" font-size="13" font-weight="700" fill="#64748b">SQLAlchemy 1.92 ms</text>
<rect x="330.0" y="594.0" width="7.5" height="18.0" rx="4" fill="#7c3aed"/>
<text x="347.5" y="609.0" font-size="13" font-weight="700" fill="#7c3aed">SQLModel 1.97 ms</text>
<text x="40.0" y="677.0" font-size="15" font-weight="700" fill="#111827">scalar projection read (20,000 rows)</text>
<rect x="330.0" y="644.0" width="4.4" height="18.0" rx="4" fill="#0f766e"/>
<text x="344.4" y="659.0" font-size="13" font-weight="700" fill="#0f766e">Ormdantic 1.16 ms</text>
<rect x="330.0" y="670.0" width="10.6" height="18.0" rx="4" fill="#64748b"/>
<text x="350.6" y="685.0" font-size="13" font-weight="700" fill="#64748b">SQLAlchemy 2.76 ms</text>
<rect x="330.0" y="696.0" width="11.1" height="18.0" rx="4" fill="#7c3aed"/>
<text x="351.1" y="711.0" font-size="13" font-weight="700" fill="#7c3aed">SQLModel 2.90 ms</text>
<text x="40.0" y="779.0" font-size="15" font-weight="700" fill="#111827">point lookup batch (1,000 rows)</text>
<rect x="330.0" y="746.0" width="116.0" height="18.0" rx="4" fill="#0f766e"/>
<text x="456.0" y="761.0" font-size="13" font-weight="700" fill="#0f766e">Ormdantic 30.35 ms</text>
<rect x="330.0" y="772.0" width="716.0" height="18.0" rx="4" fill="#64748b"/>
<text x="1056.0" y="787.0" font-size="13" font-weight="700" fill="#64748b">SQLAlchemy 187.27 ms</text>
<rect x="330.0" y="798.0" width="720.0" height="18.0" rx="4" fill="#7c3aed"/>
<text x="1060.0" y="813.0" font-size="13" font-weight="700" fill="#7c3aed">SQLModel 188.32 ms</text>
</svg>
