<svg xmlns="http://www.w3.org/2000/svg" width="1240" height="814" viewBox="0 0 1240 814" role="img">
<style>text{font-family:Inter,ui-sans-serif,system-ui,-apple-system,BlinkMacSystemFont,'Segoe UI',sans-serif;letter-spacing:0}</style>
<text x="40.0" y="48.0" font-size="27" font-weight="700" fill="#111827">Ormdantic speedup over SQLAlchemy and SQLModel</text>
<text x="40.0" y="80.0" font-size="15" font-weight="400" fill="#4b5563">Higher is better. 1.00x is parity; values above 1.00x favor Ormdantic.</text>
<line x1="330" y1="116" x2="330" y2="766" stroke="#94a3b8" stroke-width="1" stroke-dasharray="5 5"/>
<text x="330.0" y="106.0" font-size="13" font-weight="700" fill="#64748b">1.00x</text>
<text x="40.0" y="162.0" font-size="15" font-weight="700" fill="#111827">write insert batches (1,000,000 rows)</text>
<rect x="330.0" y="130.0" width="133.1" height="22.0" rx="4" fill="#0f766e"/>
<text x="473.1" y="147.0" font-size="13" font-weight="700" fill="#0f766e">vs SQLAlchemy 1.12x</text>
<rect x="330.0" y="162.0" width="140.3" height="22.0" rx="4" fill="#0f766e"/>
<text x="480.3" y="179.0" font-size="13" font-weight="700" fill="#0f766e">vs SQLModel 1.18x</text>
<text x="40.0" y="250.0" font-size="15" font-weight="700" fill="#111827">count all rows (1,000,000 rows)</text>
<rect x="330.0" y="218.0" width="177.1" height="22.0" rx="4" fill="#0f766e"/>
<text x="517.1" y="235.0" font-size="13" font-weight="700" fill="#0f766e">vs SQLAlchemy 1.49x</text>
<rect x="330.0" y="250.0" width="164.0" height="22.0" rx="4" fill="#0f766e"/>
<text x="504.0" y="267.0" font-size="13" font-weight="700" fill="#0f766e">vs SQLModel 1.38x</text>
<text x="40.0" y="338.0" font-size="15" font-weight="700" fill="#111827">count filtered (1,000,000 rows)</text>
<rect x="330.0" y="306.0" width="384.2" height="22.0" rx="4" fill="#0f766e"/>
<text x="724.2" y="323.0" font-size="13" font-weight="700" fill="#0f766e">vs SQLAlchemy 3.22x</text>
<rect x="330.0" y="338.0" width="377.8" height="22.0" rx="4" fill="#0f766e"/>
<text x="717.8" y="355.0" font-size="13" font-weight="700" fill="#0f766e">vs SQLModel 3.17x</text>
<text x="40.0" y="426.0" font-size="15" font-weight="700" fill="#111827">count score range (1,000,000 rows)</text>
<rect x="330.0" y="394.0" width="246.2" height="22.0" rx="4" fill="#0f766e"/>
<text x="586.2" y="411.0" font-size="13" font-weight="700" fill="#0f766e">vs SQLAlchemy 2.07x</text>
<rect x="330.0" y="426.0" width="238.4" height="22.0" rx="4" fill="#0f766e"/>
<text x="578.4" y="443.0" font-size="13" font-weight="700" fill="#0f766e">vs SQLModel 2.00x</text>
<text x="40.0" y="514.0" font-size="15" font-weight="700" fill="#111827">aggregate filtered (1,000,000 rows)</text>
<rect x="330.0" y="482.0" width="334.1" height="22.0" rx="4" fill="#0f766e"/>
<text x="674.1" y="499.0" font-size="13" font-weight="700" fill="#0f766e">vs SQLAlchemy 2.80x</text>
<rect x="330.0" y="514.0" width="313.5" height="22.0" rx="4" fill="#0f766e"/>
<text x="653.5" y="531.0" font-size="13" font-weight="700" fill="#0f766e">vs SQLModel 2.63x</text>
<text x="40.0" y="602.0" font-size="15" font-weight="700" fill="#111827">scalar projection read (1,000,000 rows)</text>
<rect x="330.0" y="570.0" width="236.8" height="22.0" rx="4" fill="#0f766e"/>
<text x="576.8" y="587.0" font-size="13" font-weight="700" fill="#0f766e">vs SQLAlchemy 1.99x</text>
<rect x="330.0" y="602.0" width="226.4" height="22.0" rx="4" fill="#0f766e"/>
<text x="566.4" y="619.0" font-size="13" font-weight="700" fill="#0f766e">vs SQLModel 1.90x</text>
<text x="40.0" y="690.0" font-size="15" font-weight="700" fill="#111827">point lookup batch (10,000 rows)</text>
<rect x="330.0" y="658.0" width="703.9" height="22.0" rx="4" fill="#0f766e"/>
<text x="1043.9" y="675.0" font-size="13" font-weight="700" fill="#0f766e">vs SQLAlchemy 5.91x</text>
<rect x="330.0" y="690.0" width="720.0" height="22.0" rx="4" fill="#0f766e"/>
<text x="1060.0" y="707.0" font-size="13" font-weight="700" fill="#0f766e">vs SQLModel 6.04x</text>
</svg>
