<svg xmlns="http://www.w3.org/2000/svg" width="1240" height="814" viewBox="0 0 1240 814" role="img">
<style>text{font-family:Inter,ui-sans-serif,system-ui,-apple-system,BlinkMacSystemFont,'Segoe UI',sans-serif;letter-spacing:0}</style>
<text x="40.0" y="48.0" font-size="27" font-weight="700" fill="#111827">Ormdantic speedup over SQLAlchemy and SQLModel</text>
<text x="40.0" y="80.0" font-size="15" font-weight="400" fill="#4b5563">Higher is better. 1.00x is parity; values above 1.00x favor Ormdantic.</text>
<line x1="330" y1="116" x2="330" y2="766" stroke="#94a3b8" stroke-width="1" stroke-dasharray="5 5"/>
<text x="330.0" y="106.0" font-size="13" font-weight="700" fill="#64748b">1.00x</text>
<text x="40.0" y="162.0" font-size="15" font-weight="700" fill="#111827">write insert batches (20,000 rows)</text>
<rect x="330.0" y="130.0" width="97.1" height="22.0" rx="4" fill="#0f766e"/>
<text x="437.1" y="147.0" font-size="13" font-weight="700" fill="#0f766e">vs SQLAlchemy 1.06x</text>
<rect x="330.0" y="162.0" width="96.5" height="22.0" rx="4" fill="#0f766e"/>
<text x="436.5" y="179.0" font-size="13" font-weight="700" fill="#0f766e">vs SQLModel 1.06x</text>
<text x="40.0" y="250.0" font-size="15" font-weight="700" fill="#111827">count all rows (20,000 rows)</text>
<rect x="330.0" y="218.0" width="704.9" height="22.0" rx="4" fill="#0f766e"/>
<text x="1044.9" y="235.0" font-size="13" font-weight="700" fill="#0f766e">vs SQLAlchemy 7.72x</text>
<rect x="330.0" y="250.0" width="672.8" height="22.0" rx="4" fill="#0f766e"/>
<text x="1012.8" y="267.0" font-size="13" font-weight="700" fill="#0f766e">vs SQLModel 7.37x</text>
<text x="40.0" y="338.0" font-size="15" font-weight="700" fill="#111827">count filtered (20,000 rows)</text>
<rect x="330.0" y="306.0" width="699.6" height="22.0" rx="4" fill="#0f766e"/>
<text x="1039.6" y="323.0" font-size="13" font-weight="700" fill="#0f766e">vs SQLAlchemy 7.66x</text>
<rect x="330.0" y="338.0" width="720.0" height="22.0" rx="4" fill="#0f766e"/>
<text x="1060.0" y="355.0" font-size="13" font-weight="700" fill="#0f766e">vs SQLModel 7.88x</text>
<text x="40.0" y="426.0" font-size="15" font-weight="700" fill="#111827">count score range (20,000 rows)</text>
<rect x="330.0" y="394.0" width="570.3" height="22.0" rx="4" fill="#0f766e"/>
<text x="910.3" y="411.0" font-size="13" font-weight="700" fill="#0f766e">vs SQLAlchemy 6.24x</text>
<rect x="330.0" y="426.0" width="540.8" height="22.0" rx="4" fill="#0f766e"/>
<text x="880.8" y="443.0" font-size="13" font-weight="700" fill="#0f766e">vs SQLModel 5.92x</text>
<text x="40.0" y="514.0" font-size="15" font-weight="700" fill="#111827">aggregate filtered (20,000 rows)</text>
<rect x="330.0" y="482.0" width="345.7" height="22.0" rx="4" fill="#0f766e"/>
<text x="685.7" y="499.0" font-size="13" font-weight="700" fill="#0f766e">vs SQLAlchemy 3.78x</text>
<rect x="330.0" y="514.0" width="354.0" height="22.0" rx="4" fill="#0f766e"/>
<text x="694.0" y="531.0" font-size="13" font-weight="700" fill="#0f766e">vs SQLModel 3.88x</text>
<text x="40.0" y="602.0" font-size="15" font-weight="700" fill="#111827">scalar projection read (20,000 rows)</text>
<rect x="330.0" y="570.0" width="216.9" height="22.0" rx="4" fill="#0f766e"/>
<text x="556.9" y="587.0" font-size="13" font-weight="700" fill="#0f766e">vs SQLAlchemy 2.37x</text>
<rect x="330.0" y="602.0" width="227.8" height="22.0" rx="4" fill="#0f766e"/>
<text x="567.8" y="619.0" font-size="13" font-weight="700" fill="#0f766e">vs SQLModel 2.49x</text>
<text x="40.0" y="690.0" font-size="15" font-weight="700" fill="#111827">point lookup batch (1,000 rows)</text>
<rect x="330.0" y="658.0" width="563.5" height="22.0" rx="4" fill="#0f766e"/>
<text x="903.5" y="675.0" font-size="13" font-weight="700" fill="#0f766e">vs SQLAlchemy 6.17x</text>
<rect x="330.0" y="690.0" width="566.7" height="22.0" rx="4" fill="#0f766e"/>
<text x="906.7" y="707.0" font-size="13" font-weight="700" fill="#0f766e">vs SQLModel 6.20x</text>
</svg>
