<svg xmlns="http://www.w3.org/2000/svg" width="1240" height="2346" viewBox="0 0 1240 2346" role="img">
<style>text{font-family:Inter,ui-sans-serif,system-ui,-apple-system,BlinkMacSystemFont,'Segoe UI',sans-serif;letter-spacing:0}</style>
<text x="40.0" y="48.0" font-size="27" font-weight="700" fill="#111827">MySQL smoke profile median latency</text>
<text x="40.0" y="80.0" font-size="15" font-weight="400" fill="#4b5563">Lower is better. Bars use median wall time; labels show exact milliseconds.</text>
<rect x="330.0" y="89.0" width="18" height="12" rx="3" fill="#0f766e"/><text x="356.0" y="102.0" font-size="14" font-weight="700" fill="#374151">Ormdantic</text><rect x="485.0" y="89.0" width="18" height="12" rx="3" fill="#64748b"/><text x="511.0" y="102.0" font-size="14" font-weight="700" fill="#374151">SQLAlchemy</text><rect x="640.0" y="89.0" width="18" height="12" rx="3" fill="#7c3aed"/><text x="666.0" y="102.0" font-size="14" font-weight="700" fill="#374151">SQLModel</text>
<text x="40.0" y="167.0" font-size="15" font-weight="700" fill="#111827">schema create/drop (0 rows)</text>
<rect x="330.0" y="134.0" width="44.0" height="18.0" rx="4" fill="#0f766e"/>
<text x="384.0" y="149.0" font-size="13" font-weight="700" fill="#0f766e">Ormdantic 47.17 ms</text>
<rect x="330.0" y="160.0" width="49.2" height="18.0" rx="4" fill="#64748b"/>
<text x="389.2" y="175.0" font-size="13" font-weight="700" fill="#64748b">SQLAlchemy 52.70 ms</text>
<rect x="330.0" y="186.0" width="48.5" height="18.0" rx="4" fill="#7c3aed"/>
<text x="388.5" y="201.0" font-size="13" font-weight="700" fill="#7c3aed">SQLModel 51.96 ms</text>
<text x="40.0" y="269.0" font-size="15" font-weight="700" fill="#111827">raw batch insert (1,000 rows)</text>
<rect x="330.0" y="236.0" width="27.5" height="18.0" rx="4" fill="#0f766e"/>
<text x="367.5" y="251.0" font-size="13" font-weight="700" fill="#0f766e">Ormdantic 29.51 ms</text>
<rect x="330.0" y="262.0" width="17.9" height="18.0" rx="4" fill="#64748b"/>
<text x="357.9" y="277.0" font-size="13" font-weight="700" fill="#64748b">SQLAlchemy 19.21 ms</text>
<rect x="330.0" y="288.0" width="17.3" height="18.0" rx="4" fill="#7c3aed"/>
<text x="357.3" y="303.0" font-size="13" font-weight="700" fill="#7c3aed">SQLModel 18.51 ms</text>
<text x="40.0" y="371.0" font-size="15" font-weight="700" fill="#111827">orm insert models (1,000 rows)</text>
<rect x="330.0" y="338.0" width="720.0" height="18.0" rx="4" fill="#0f766e"/>
<text x="1060.0" y="353.0" font-size="13" font-weight="700" fill="#0f766e">Ormdantic 771.76 ms</text>
<rect x="330.0" y="364.0" width="23.8" height="18.0" rx="4" fill="#64748b"/>
<text x="363.8" y="379.0" font-size="13" font-weight="700" fill="#64748b">SQLAlchemy 25.47 ms</text>
<rect x="330.0" y="390.0" width="28.5" height="18.0" rx="4" fill="#7c3aed"/>
<text x="368.5" y="405.0" font-size="13" font-weight="700" fill="#7c3aed">SQLModel 30.50 ms</text>
<text x="40.0" y="473.0" font-size="15" font-weight="700" fill="#111827">orm update filtered (1,000 rows)</text>
<rect x="330.0" y="440.0" width="3.5" height="18.0" rx="4" fill="#0f766e"/>
<text x="343.5" y="455.0" font-size="13" font-weight="700" fill="#0f766e">Ormdantic 3.73 ms</text>
<rect x="330.0" y="466.0" width="3.6" height="18.0" rx="4" fill="#64748b"/>
<text x="343.6" y="481.0" font-size="13" font-weight="700" fill="#64748b">SQLAlchemy 3.81 ms</text>
<rect x="330.0" y="492.0" width="3.0" height="18.0" rx="4" fill="#7c3aed"/>
<text x="343.0" y="507.0" font-size="13" font-weight="700" fill="#7c3aed">SQLModel 3.25 ms</text>
<text x="40.0" y="575.0" font-size="15" font-weight="700" fill="#111827">orm upsert mixed (100 rows)</text>
<rect x="330.0" y="542.0" width="138.7" height="18.0" rx="4" fill="#0f766e"/>
<text x="478.7" y="557.0" font-size="13" font-weight="700" fill="#0f766e">Ormdantic 148.68 ms</text>
<rect x="330.0" y="568.0" width="109.1" height="18.0" rx="4" fill="#64748b"/>
<text x="449.1" y="583.0" font-size="13" font-weight="700" fill="#64748b">SQLAlchemy 116.89 ms</text>
<rect x="330.0" y="594.0" width="105.3" height="18.0" rx="4" fill="#7c3aed"/>
<text x="445.3" y="609.0" font-size="13" font-weight="700" fill="#7c3aed">SQLModel 112.84 ms</text>
<text x="40.0" y="677.0" font-size="15" font-weight="700" fill="#111827">orm delete filtered (1,000 rows)</text>
<rect x="330.0" y="644.0" width="70.4" height="18.0" rx="4" fill="#0f766e"/>
<text x="410.4" y="659.0" font-size="13" font-weight="700" fill="#0f766e">Ormdantic 75.46 ms</text>
<rect x="330.0" y="670.0" width="3.4" height="18.0" rx="4" fill="#64748b"/>
<text x="343.4" y="685.0" font-size="13" font-weight="700" fill="#64748b">SQLAlchemy 3.69 ms</text>
<rect x="330.0" y="696.0" width="3.3" height="18.0" rx="4" fill="#7c3aed"/>
<text x="343.3" y="711.0" font-size="13" font-weight="700" fill="#7c3aed">SQLModel 3.57 ms</text>
<text x="40.0" y="779.0" font-size="15" font-weight="700" fill="#111827">count all rows (1,000 rows)</text>
<rect x="330.0" y="746.0" width="2.0" height="18.0" rx="4" fill="#0f766e"/>
<text x="340.5" y="761.0" font-size="13" font-weight="700" fill="#0f766e">Ormdantic 0.58 ms</text>
<rect x="330.0" y="772.0" width="2.0" height="18.0" rx="4" fill="#64748b"/>
<text x="341.2" y="787.0" font-size="13" font-weight="700" fill="#64748b">SQLAlchemy 1.25 ms</text>
<rect x="330.0" y="798.0" width="2.0" height="18.0" rx="4" fill="#7c3aed"/>
<text x="341.1" y="813.0" font-size="13" font-weight="700" fill="#7c3aed">SQLModel 1.15 ms</text>
<text x="40.0" y="881.0" font-size="15" font-weight="700" fill="#111827">count equality filter (1,000 rows)</text>
<rect x="330.0" y="848.0" width="2.0" height="18.0" rx="4" fill="#0f766e"/>
<text x="340.7" y="863.0" font-size="13" font-weight="700" fill="#0f766e">Ormdantic 0.73 ms</text>
<rect x="330.0" y="874.0" width="2.0" height="18.0" rx="4" fill="#64748b"/>
<text x="341.3" y="889.0" font-size="13" font-weight="700" fill="#64748b">SQLAlchemy 1.42 ms</text>
<rect x="330.0" y="900.0" width="2.0" height="18.0" rx="4" fill="#7c3aed"/>
<text x="341.1" y="915.0" font-size="13" font-weight="700" fill="#7c3aed">SQLModel 1.13 ms</text>
<text x="40.0" y="983.0" font-size="15" font-weight="700" fill="#111827">count range filter (1,000 rows)</text>
<rect x="330.0" y="950.0" width="2.0" height="18.0" rx="4" fill="#0f766e"/>
<text x="340.7" y="965.0" font-size="13" font-weight="700" fill="#0f766e">Ormdantic 0.75 ms</text>
<rect x="330.0" y="976.0" width="2.0" height="18.0" rx="4" fill="#64748b"/>
<text x="341.1" y="991.0" font-size="13" font-weight="700" fill="#64748b">SQLAlchemy 1.23 ms</text>
<rect x="330.0" y="1002.0" width="2.0" height="18.0" rx="4" fill="#7c3aed"/>
<text x="341.4" y="1017.0" font-size="13" font-weight="700" fill="#7c3aed">SQLModel 1.51 ms</text>
<text x="40.0" y="1085.0" font-size="15" font-weight="700" fill="#111827">aggregate filtered rows (1,000 rows)</text>
<rect x="330.0" y="1052.0" width="2.0" height="18.0" rx="4" fill="#0f766e"/>
<text x="340.7" y="1067.0" font-size="13" font-weight="700" fill="#0f766e">Ormdantic 0.79 ms</text>
<rect x="330.0" y="1078.0" width="2.0" height="18.0" rx="4" fill="#64748b"/>
<text x="341.5" y="1093.0" font-size="13" font-weight="700" fill="#64748b">SQLAlchemy 1.57 ms</text>
<rect x="330.0" y="1104.0" width="2.0" height="18.0" rx="4" fill="#7c3aed"/>
<text x="341.3" y="1119.0" font-size="13" font-weight="700" fill="#7c3aed">SQLModel 1.39 ms</text>
<text x="40.0" y="1187.0" font-size="15" font-weight="700" fill="#111827">scalar projection read (1,000 rows)</text>
<rect x="330.0" y="1154.0" width="2.0" height="18.0" rx="4" fill="#0f766e"/>
<text x="340.7" y="1169.0" font-size="13" font-weight="700" fill="#0f766e">Ormdantic 0.76 ms</text>
<rect x="330.0" y="1180.0" width="2.0" height="18.0" rx="4" fill="#64748b"/>
<text x="341.4" y="1195.0" font-size="13" font-weight="700" fill="#64748b">SQLAlchemy 1.51 ms</text>
<rect x="330.0" y="1206.0" width="2.0" height="18.0" rx="4" fill="#7c3aed"/>
<text x="341.4" y="1221.0" font-size="13" font-weight="700" fill="#7c3aed">SQLModel 1.48 ms</text>
<text x="40.0" y="1289.0" font-size="15" font-weight="700" fill="#111827">batched primary-key lookup (100 rows)</text>
<rect x="330.0" y="1256.0" width="17.1" height="18.0" rx="4" fill="#0f766e"/>
<text x="357.1" y="1271.0" font-size="13" font-weight="700" fill="#0f766e">Ormdantic 18.37 ms</text>
<rect x="330.0" y="1282.0" width="29.2" height="18.0" rx="4" fill="#64748b"/>
<text x="369.2" y="1297.0" font-size="13" font-weight="700" fill="#64748b">SQLAlchemy 31.31 ms</text>
<rect x="330.0" y="1308.0" width="28.6" height="18.0" rx="4" fill="#7c3aed"/>
<text x="368.6" y="1323.0" font-size="13" font-weight="700" fill="#7c3aed">SQLModel 30.70 ms</text>
<text x="40.0" y="1391.0" font-size="15" font-weight="700" fill="#111827">paginated find_many (100 rows)</text>
<rect x="330.0" y="1358.0" width="2.0" height="18.0" rx="4" fill="#0f766e"/>
<text x="341.2" y="1373.0" font-size="13" font-weight="700" fill="#0f766e">Ormdantic 1.27 ms</text>
<rect x="330.0" y="1384.0" width="2.0" height="18.0" rx="4" fill="#64748b"/>
<text x="341.6" y="1399.0" font-size="13" font-weight="700" fill="#64748b">SQLAlchemy 1.68 ms</text>
<rect x="330.0" y="1410.0" width="2.0" height="18.0" rx="4" fill="#7c3aed"/>
<text x="341.6" y="1425.0" font-size="13" font-weight="700" fill="#7c3aed">SQLModel 1.71 ms</text>
<text x="40.0" y="1493.0" font-size="15" font-weight="700" fill="#111827">ordered find_many (100 rows)</text>
<rect x="330.0" y="1460.0" width="2.0" height="18.0" rx="4" fill="#0f766e"/>
<text x="341.4" y="1475.0" font-size="13" font-weight="700" fill="#0f766e">Ormdantic 1.55 ms</text>
<rect x="330.0" y="1486.0" width="2.0" height="18.0" rx="4" fill="#64748b"/>
<text x="341.8" y="1501.0" font-size="13" font-weight="700" fill="#64748b">SQLAlchemy 1.89 ms</text>
<rect x="330.0" y="1512.0" width="2.0" height="18.0" rx="4" fill="#7c3aed"/>
<text x="342.0" y="1527.0" font-size="13" font-weight="700" fill="#7c3aed">SQLModel 2.13 ms</text>
<text x="40.0" y="1595.0" font-size="15" font-weight="700" fill="#111827">hydrate flat rows (100 rows)</text>
<rect x="330.0" y="1562.0" width="2.1" height="18.0" rx="4" fill="#0f766e"/>
<text x="342.1" y="1577.0" font-size="13" font-weight="700" fill="#0f766e">Ormdantic 2.30 ms</text>
<rect x="330.0" y="1588.0" width="2.0" height="18.0" rx="4" fill="#64748b"/>
<text x="341.5" y="1603.0" font-size="13" font-weight="700" fill="#64748b">SQLAlchemy 1.60 ms</text>
<rect x="330.0" y="1614.0" width="2.0" height="18.0" rx="4" fill="#7c3aed"/>
<text x="341.6" y="1629.0" font-size="13" font-weight="700" fill="#7c3aed">SQLModel 1.68 ms</text>
<text x="40.0" y="1697.0" font-size="15" font-weight="700" fill="#111827">serialize simple payloads (100 rows)</text>
<rect x="330.0" y="1664.0" width="4.3" height="18.0" rx="4" fill="#0f766e"/>
<text x="344.3" y="1679.0" font-size="13" font-weight="700" fill="#0f766e">Ormdantic 4.61 ms</text>
<rect x="330.0" y="1690.0" width="2.0" height="18.0" rx="4" fill="#64748b"/>
<text x="340.4" y="1705.0" font-size="13" font-weight="700" fill="#64748b">SQLAlchemy 0.41 ms</text>
<rect x="330.0" y="1716.0" width="2.0" height="18.0" rx="4" fill="#7c3aed"/>
<text x="341.4" y="1731.0" font-size="13" font-weight="700" fill="#7c3aed">SQLModel 1.54 ms</text>
<text x="40.0" y="1799.0" font-size="15" font-weight="700" fill="#111827">serialize nested payloads (40 rows)</text>
<rect x="330.0" y="1766.0" width="2.8" height="18.0" rx="4" fill="#0f766e"/>
<text x="342.8" y="1781.0" font-size="13" font-weight="700" fill="#0f766e">Ormdantic 3.04 ms</text>
<rect x="330.0" y="1792.0" width="2.0" height="18.0" rx="4" fill="#64748b"/>
<text x="340.7" y="1807.0" font-size="13" font-weight="700" fill="#64748b">SQLAlchemy 0.79 ms</text>
<rect x="330.0" y="1818.0" width="2.0" height="18.0" rx="4" fill="#7c3aed"/>
<text x="340.4" y="1833.0" font-size="13" font-weight="700" fill="#7c3aed">SQLModel 0.47 ms</text>
<text x="40.0" y="1901.0" font-size="15" font-weight="700" fill="#111827">hydrate relationship results (40 rows)</text>
<rect x="330.0" y="1868.0" width="2.0" height="18.0" rx="4" fill="#0f766e"/>
<text x="341.9" y="1883.0" font-size="13" font-weight="700" fill="#0f766e">Ormdantic 2.07 ms</text>
<rect x="330.0" y="1894.0" width="4.5" height="18.0" rx="4" fill="#64748b"/>
<text x="344.5" y="1909.0" font-size="13" font-weight="700" fill="#64748b">SQLAlchemy 4.84 ms</text>
<rect x="330.0" y="1920.0" width="14.5" height="18.0" rx="4" fill="#7c3aed"/>
<text x="354.5" y="1935.0" font-size="13" font-weight="700" fill="#7c3aed">SQLModel 15.59 ms</text>
<text x="40.0" y="2003.0" font-size="15" font-weight="700" fill="#111827">one-to-many relationship loading (40 rows)</text>
<rect x="330.0" y="1970.0" width="2.0" height="18.0" rx="4" fill="#0f766e"/>
<text x="341.3" y="1985.0" font-size="13" font-weight="700" fill="#0f766e">Ormdantic 1.42 ms</text>
<rect x="330.0" y="1996.0" width="2.0" height="18.0" rx="4" fill="#64748b"/>
<text x="342.0" y="2011.0" font-size="13" font-weight="700" fill="#64748b">SQLAlchemy 2.18 ms</text>
<rect x="330.0" y="2022.0" width="2.0" height="18.0" rx="4" fill="#7c3aed"/>
<text x="341.9" y="2037.0" font-size="13" font-weight="700" fill="#7c3aed">SQLModel 2.00 ms</text>
<text x="40.0" y="2105.0" font-size="15" font-weight="700" fill="#111827">many-to-one relationship loading (40 rows)</text>
<rect x="330.0" y="2072.0" width="2.0" height="18.0" rx="4" fill="#0f766e"/>
<text x="341.6" y="2087.0" font-size="13" font-weight="700" fill="#0f766e">Ormdantic 1.74 ms</text>
<rect x="330.0" y="2098.0" width="4.2" height="18.0" rx="4" fill="#64748b"/>
<text x="344.2" y="2113.0" font-size="13" font-weight="700" fill="#64748b">SQLAlchemy 4.51 ms</text>
<rect x="330.0" y="2124.0" width="2.0" height="18.0" rx="4" fill="#7c3aed"/>
<text x="342.0" y="2139.0" font-size="13" font-weight="700" fill="#7c3aed">SQLModel 2.12 ms</text>
<text x="40.0" y="2207.0" font-size="15" font-weight="700" fill="#111827">nested relationship loading (40 rows)</text>
<rect x="330.0" y="2174.0" width="2.0" height="18.0" rx="4" fill="#0f766e"/>
<text x="342.0" y="2189.0" font-size="13" font-weight="700" fill="#0f766e">Ormdantic 2.12 ms</text>
<rect x="330.0" y="2200.0" width="2.8" height="18.0" rx="4" fill="#64748b"/>
<text x="342.8" y="2215.0" font-size="13" font-weight="700" fill="#64748b">SQLAlchemy 2.97 ms</text>
<rect x="330.0" y="2226.0" width="5.1" height="18.0" rx="4" fill="#7c3aed"/>
<text x="345.1" y="2241.0" font-size="13" font-weight="700" fill="#7c3aed">SQLModel 5.45 ms</text>
</svg>
