<svg xmlns="http://www.w3.org/2000/svg" width="1120" height="666" viewBox="0 0 1120 666" role="img">
<style>text{font-family:Inter,ui-sans-serif,system-ui,-apple-system,BlinkMacSystemFont,'Segoe UI',sans-serif;letter-spacing:0}</style>
<rect width="1120" height="666" fill="#ffffff"/>
<text x="40.0" y="52.0" font-size="28" font-weight="700" fill="#111827">Ormdantic vs SQLAlchemy median latency</text>
<text x="40.0" y="84.0" font-size="15" font-weight="400" fill="#4b5563">Lower is better. Values are median wall time in milliseconds.</text>
<rect x="300.0" y="69.0" width="18" height="12" rx="3" fill="#0f766e"/><text x="326.0" y="82.0" font-size="14" font-weight="600" fill="#374151">Ormdantic</text>
<rect x="460.0" y="69.0" width="18" height="12" rx="3" fill="#6b7280"/><text x="486.0" y="82.0" font-size="14" font-weight="600" fill="#374151">SQLAlchemy</text>
<text x="40.0" y="148.0" font-size="15" font-weight="600" fill="#111827">count all rows (20,000 rows)</text>
<rect x="300.0" y="128.0" width="2.0" height="24.0" rx="5" fill="#0f766e"/>
<rect x="300.0" y="162.0" width="2.5" height="24.0" rx="5" fill="#6b7280"/>
<text x="312.7" y="146.0" font-size="14" font-weight="700" fill="#0f766e">0.19 ms</text>
<text x="314.5" y="180.0" font-size="14" font-weight="700" fill="#374151">0.72 ms</text>
<text x="40.0" y="240.0" font-size="15" font-weight="600" fill="#111827">count filtered (20,000 rows)</text>
<rect x="300.0" y="220.0" width="2.0" height="24.0" rx="5" fill="#0f766e"/>
<rect x="300.0" y="254.0" width="3.0" height="24.0" rx="5" fill="#6b7280"/>
<text x="312.9" y="238.0" font-size="14" font-weight="700" fill="#0f766e">0.25 ms</text>
<text x="315.0" y="272.0" font-size="14" font-weight="700" fill="#374151">0.88 ms</text>
<text x="40.0" y="332.0" font-size="15" font-weight="600" fill="#111827">count score range (20,000 rows)</text>
<rect x="300.0" y="312.0" width="2.0" height="24.0" rx="5" fill="#0f766e"/>
<rect x="300.0" y="346.0" width="3.1" height="24.0" rx="5" fill="#6b7280"/>
<text x="313.0" y="330.0" font-size="14" font-weight="700" fill="#0f766e">0.29 ms</text>
<text x="315.1" y="364.0" font-size="14" font-weight="700" fill="#374151">0.92 ms</text>
<text x="40.0" y="424.0" font-size="15" font-weight="600" fill="#111827">aggregate filtered (20,000 rows)</text>
<rect x="300.0" y="404.0" width="3.4" height="24.0" rx="5" fill="#0f766e"/>
<rect x="300.0" y="438.0" width="5.5" height="24.0" rx="5" fill="#6b7280"/>
<text x="315.4" y="422.0" font-size="14" font-weight="700" fill="#0f766e">0.99 ms</text>
<text x="317.5" y="456.0" font-size="14" font-weight="700" fill="#374151">1.60 ms</text>
<text x="40.0" y="516.0" font-size="15" font-weight="600" fill="#111827">point lookup batch (1,000 rows)</text>
<rect x="300.0" y="496.0" width="198.7" height="24.0" rx="5" fill="#0f766e"/>
<rect x="300.0" y="530.0" width="650.0" height="24.0" rx="5" fill="#6b7280"/>
<text x="510.7" y="514.0" font-size="14" font-weight="700" fill="#0f766e">58.38 ms</text>
<text x="962.0" y="548.0" font-size="14" font-weight="700" fill="#374151">190.95 ms</text>
</svg>
