<svg xmlns="http://www.w3.org/2000/svg" width="1280" height="1458" viewBox="0 0 1280 1458" role="img">
<style>text{font-family:Inter,ui-sans-serif,system-ui,sans-serif}</style>
<rect width="100%" height="100%" rx="20" fill="#0b1220"/>
<text x="42" y="52" font-size="28" fill="#f8fafc" font-weight="700">Ormdantic pull request benchmark</text>
<text x="42" y="86" font-size="15" fill="#94a3b8" font-weight="500">sqlite · ci · lower latency is better</text>
<text x="42" y="119" font-size="17" fill="#5eead4" font-weight="700">Ormdantic vs SQLAlchemy 2.11x  ·  vs SQLModel 2.19x</text>
<text x="42" y="170" font-size="14" fill="#e2e8f0" font-weight="600">schema create/drop (0)</text>
<rect x="400" y="153" width="2.00" height="18" rx="4" fill="#14b8a6"/>
<text x="410.0" y="167" font-size="12" fill="#14b8a6" font-weight="600">Ormdantic 7.84 ms</text>
<rect x="675" y="153" width="3.69" height="18" rx="4" fill="#64748b"/>
<text x="686.6941397283322" y="167" font-size="12" fill="#64748b" font-weight="600">SQLAlchemy 19.48 ms</text>
<rect x="950" y="153" width="4.27" height="18" rx="4" fill="#8b5cf6"/>
<text x="962.2651903490693" y="167" font-size="12" fill="#8b5cf6" font-weight="600">SQLModel 22.49 ms</text>
<text x="42" y="193" font-size="12" fill="#94a3b8" font-weight="500">base/head 0.86x</text>
<text x="42" y="228" font-size="14" fill="#e2e8f0" font-weight="600">raw batch insert (10,000)</text>
<rect x="400" y="211" width="13.00" height="18" rx="4" fill="#14b8a6"/>
<text x="421.00148769969405" y="225" font-size="12" fill="#14b8a6" font-weight="600">Ormdantic 68.57 ms</text>
<rect x="675" y="211" width="35.81" height="18" rx="4" fill="#64748b"/>
<text x="718.8065200831115" y="225" font-size="12" fill="#64748b" font-weight="600">SQLAlchemy 188.84 ms</text>
<rect x="950" y="211" width="33.29" height="18" rx="4" fill="#8b5cf6"/>
<text x="991.2901482379032" y="225" font-size="12" fill="#8b5cf6" font-weight="600">SQLModel 175.56 ms</text>
<text x="42" y="251" font-size="12" fill="#94a3b8" font-weight="500">base/head 0.89x</text>
<text x="42" y="286" font-size="14" fill="#e2e8f0" font-weight="600">orm insert models (10,000)</text>
<rect x="400" y="269" width="59.92" height="18" rx="4" fill="#14b8a6"/>
<text x="467.9241689934926" y="283" font-size="12" fill="#14b8a6" font-weight="600">Ormdantic 316.03 ms</text>
<rect x="675" y="269" width="113.27" height="18" rx="4" fill="#64748b"/>
<text x="796.2698639233943" y="283" font-size="12" fill="#64748b" font-weight="600">SQLAlchemy 597.36 ms</text>
<rect x="950" y="269" width="127.99" height="18" rx="4" fill="#8b5cf6"/>
<text x="1085.9888176589259" y="283" font-size="12" fill="#8b5cf6" font-weight="600">SQLModel 674.98 ms</text>
<text x="42" y="309" font-size="12" fill="#94a3b8" font-weight="500">base/head 2.25x</text>
<text x="42" y="344" font-size="14" fill="#e2e8f0" font-weight="600">orm update filtered (10,000)</text>
<rect x="400" y="327" width="2.00" height="18" rx="4" fill="#14b8a6"/>
<text x="410.0" y="341" font-size="12" fill="#14b8a6" font-weight="600">Ormdantic 5.09 ms</text>
<rect x="675" y="327" width="2.00" height="18" rx="4" fill="#64748b"/>
<text x="685.0" y="341" font-size="12" fill="#64748b" font-weight="600">SQLAlchemy 5.79 ms</text>
<rect x="950" y="327" width="2.00" height="18" rx="4" fill="#8b5cf6"/>
<text x="960.0" y="341" font-size="12" fill="#8b5cf6" font-weight="600">SQLModel 5.98 ms</text>
<text x="42" y="367" font-size="12" fill="#94a3b8" font-weight="500">base/head 1.39x</text>
<text x="42" y="402" font-size="14" fill="#e2e8f0" font-weight="600">orm upsert mixed (500)</text>
<rect x="400" y="385" width="6.51" height="18" rx="4" fill="#14b8a6"/>
<text x="414.50591566268395" y="399" font-size="12" fill="#14b8a6" font-weight="600">Ormdantic 34.31 ms</text>
<rect x="675" y="385" width="145.59" height="18" rx="4" fill="#64748b"/>
<text x="828.594191899646" y="399" font-size="12" fill="#64748b" font-weight="600">SQLAlchemy 767.83 ms</text>
<rect x="950" y="385" width="150.00" height="18" rx="4" fill="#8b5cf6"/>
<text x="1108.0" y="399" font-size="12" fill="#8b5cf6" font-weight="600">SQLModel 791.07 ms</text>
<text x="42" y="425" font-size="12" fill="#94a3b8" font-weight="500">base/head 0.76x</text>
<text x="42" y="460" font-size="14" fill="#e2e8f0" font-weight="600">orm delete filtered (10,000)</text>
<rect x="400" y="443" width="2.00" height="18" rx="4" fill="#14b8a6"/>
<text x="410.0" y="457" font-size="12" fill="#14b8a6" font-weight="600">Ormdantic 7.49 ms</text>
<rect x="675" y="443" width="2.00" height="18" rx="4" fill="#64748b"/>
<text x="685.0" y="457" font-size="12" fill="#64748b" font-weight="600">SQLAlchemy 6.91 ms</text>
<rect x="950" y="443" width="2.00" height="18" rx="4" fill="#8b5cf6"/>
<text x="960.0" y="457" font-size="12" fill="#8b5cf6" font-weight="600">SQLModel 6.67 ms</text>
<text x="42" y="483" font-size="12" fill="#94a3b8" font-weight="500">base/head 0.77x</text>
<text x="42" y="518" font-size="14" fill="#e2e8f0" font-weight="600">count all rows (10,000)</text>
<rect x="400" y="501" width="2.00" height="18" rx="4" fill="#14b8a6"/>
<text x="410.0" y="515" font-size="12" fill="#14b8a6" font-weight="600">Ormdantic 0.40 ms</text>
<rect x="675" y="501" width="2.00" height="18" rx="4" fill="#64748b"/>
<text x="685.0" y="515" font-size="12" fill="#64748b" font-weight="600">SQLAlchemy 1.21 ms</text>
<rect x="950" y="501" width="2.00" height="18" rx="4" fill="#8b5cf6"/>
<text x="960.0" y="515" font-size="12" fill="#8b5cf6" font-weight="600">SQLModel 1.19 ms</text>
<text x="42" y="541" font-size="12" fill="#94a3b8" font-weight="500">base/head 1.02x</text>
<text x="42" y="576" font-size="14" fill="#e2e8f0" font-weight="600">count equality filter (10,000)</text>
<rect x="400" y="559" width="2.00" height="18" rx="4" fill="#14b8a6"/>
<text x="410.0" y="573" font-size="12" fill="#14b8a6" font-weight="600">Ormdantic 0.39 ms</text>
<rect x="675" y="559" width="2.00" height="18" rx="4" fill="#64748b"/>
<text x="685.0" y="573" font-size="12" fill="#64748b" font-weight="600">SQLAlchemy 1.44 ms</text>
<rect x="950" y="559" width="2.00" height="18" rx="4" fill="#8b5cf6"/>
<text x="960.0" y="573" font-size="12" fill="#8b5cf6" font-weight="600">SQLModel 1.39 ms</text>
<text x="42" y="599" font-size="12" fill="#94a3b8" font-weight="500">base/head 1.07x</text>
<text x="42" y="634" font-size="14" fill="#e2e8f0" font-weight="600">count range filter (10,000)</text>
<rect x="400" y="617" width="2.00" height="18" rx="4" fill="#14b8a6"/>
<text x="410.0" y="631" font-size="12" fill="#14b8a6" font-weight="600">Ormdantic 0.44 ms</text>
<rect x="675" y="617" width="2.00" height="18" rx="4" fill="#64748b"/>
<text x="685.0" y="631" font-size="12" fill="#64748b" font-weight="600">SQLAlchemy 1.45 ms</text>
<rect x="950" y="617" width="2.00" height="18" rx="4" fill="#8b5cf6"/>
<text x="960.0" y="631" font-size="12" fill="#8b5cf6" font-weight="600">SQLModel 1.35 ms</text>
<text x="42" y="657" font-size="12" fill="#94a3b8" font-weight="500">base/head 1.20x</text>
<text x="42" y="692" font-size="14" fill="#e2e8f0" font-weight="600">aggregate filtered rows (10,000)</text>
<rect x="400" y="675" width="2.00" height="18" rx="4" fill="#14b8a6"/>
<text x="410.0" y="689" font-size="12" fill="#14b8a6" font-weight="600">Ormdantic 0.81 ms</text>
<rect x="675" y="675" width="2.00" height="18" rx="4" fill="#64748b"/>
<text x="685.0" y="689" font-size="12" fill="#64748b" font-weight="600">SQLAlchemy 1.74 ms</text>
<rect x="950" y="675" width="2.00" height="18" rx="4" fill="#8b5cf6"/>
<text x="960.0" y="689" font-size="12" fill="#8b5cf6" font-weight="600">SQLModel 1.74 ms</text>
<text x="42" y="715" font-size="12" fill="#94a3b8" font-weight="500">base/head 1.02x</text>
<text x="42" y="750" font-size="14" fill="#e2e8f0" font-weight="600">scalar projection read (10,000)</text>
<rect x="400" y="733" width="2.00" height="18" rx="4" fill="#14b8a6"/>
<text x="410.0" y="747" font-size="12" fill="#14b8a6" font-weight="600">Ormdantic 1.30 ms</text>
<rect x="675" y="733" width="2.00" height="18" rx="4" fill="#64748b"/>
<text x="685.0" y="747" font-size="12" fill="#64748b" font-weight="600">SQLAlchemy 2.85 ms</text>
<rect x="950" y="733" width="2.00" height="18" rx="4" fill="#8b5cf6"/>
<text x="960.0" y="747" font-size="12" fill="#8b5cf6" font-weight="600">SQLModel 2.72 ms</text>
<text x="42" y="773" font-size="12" fill="#94a3b8" font-weight="500">base/head 1.09x</text>
<text x="42" y="808" font-size="14" fill="#e2e8f0" font-weight="600">batched primary-key lookup (500)</text>
<rect x="400" y="791" width="17.27" height="18" rx="4" fill="#14b8a6"/>
<text x="425.2657350817518" y="805" font-size="12" fill="#14b8a6" font-weight="600">Ormdantic 91.06 ms</text>
<rect x="675" y="791" width="37.69" height="18" rx="4" fill="#64748b"/>
<text x="720.6924956322595" y="805" font-size="12" fill="#64748b" font-weight="600">SQLAlchemy 198.78 ms</text>
<rect x="950" y="791" width="40.77" height="18" rx="4" fill="#8b5cf6"/>
<text x="998.7655625489379" y="805" font-size="12" fill="#8b5cf6" font-weight="600">SQLModel 214.99 ms</text>
<text x="42" y="831" font-size="12" fill="#94a3b8" font-weight="500">base/head 0.97x</text>
<text x="42" y="866" font-size="14" fill="#e2e8f0" font-weight="600">paginated find_many (500)</text>
<rect x="400" y="849" width="2.00" height="18" rx="4" fill="#14b8a6"/>
<text x="410.0" y="863" font-size="12" fill="#14b8a6" font-weight="600">Ormdantic 2.46 ms</text>
<rect x="675" y="849" width="2.00" height="18" rx="4" fill="#64748b"/>
<text x="685.0" y="863" font-size="12" fill="#64748b" font-weight="600">SQLAlchemy 3.85 ms</text>
<rect x="950" y="849" width="2.00" height="18" rx="4" fill="#8b5cf6"/>
<text x="960.0" y="863" font-size="12" fill="#8b5cf6" font-weight="600">SQLModel 4.09 ms</text>
<text x="42" y="889" font-size="12" fill="#94a3b8" font-weight="500">base/head 0.98x</text>
<text x="42" y="924" font-size="14" fill="#e2e8f0" font-weight="600">ordered find_many (500)</text>
<rect x="400" y="907" width="2.00" height="18" rx="4" fill="#14b8a6"/>
<text x="410.0" y="921" font-size="12" fill="#14b8a6" font-weight="600">Ormdantic 3.15 ms</text>
<rect x="675" y="907" width="2.00" height="18" rx="4" fill="#64748b"/>
<text x="685.0" y="921" font-size="12" fill="#64748b" font-weight="600">SQLAlchemy 4.60 ms</text>
<rect x="950" y="907" width="2.00" height="18" rx="4" fill="#8b5cf6"/>
<text x="960.0" y="921" font-size="12" fill="#8b5cf6" font-weight="600">SQLModel 5.04 ms</text>
<text x="42" y="947" font-size="12" fill="#94a3b8" font-weight="500">base/head 1.01x</text>
<text x="42" y="982" font-size="14" fill="#e2e8f0" font-weight="600">hydrate flat rows (500)</text>
<rect x="400" y="965" width="2.00" height="18" rx="4" fill="#14b8a6"/>
<text x="410.0" y="979" font-size="12" fill="#14b8a6" font-weight="600">Ormdantic 2.44 ms</text>
<rect x="675" y="965" width="2.00" height="18" rx="4" fill="#64748b"/>
<text x="685.0" y="979" font-size="12" fill="#64748b" font-weight="600">SQLAlchemy 3.82 ms</text>
<rect x="950" y="965" width="2.00" height="18" rx="4" fill="#8b5cf6"/>
<text x="960.0" y="979" font-size="12" fill="#8b5cf6" font-weight="600">SQLModel 4.26 ms</text>
<text x="42" y="1005" font-size="12" fill="#94a3b8" font-weight="500">base/head 1.05x</text>
<text x="42" y="1040" font-size="14" fill="#e2e8f0" font-weight="600">serialize simple payloads (500) · diagnostic</text>
<rect x="400" y="1023" width="2.00" height="18" rx="4" fill="#14b8a6"/>
<text x="410.0" y="1037" font-size="12" fill="#14b8a6" font-weight="600">Ormdantic 0.60 ms</text>
<rect x="675" y="1023" width="2.00" height="18" rx="4" fill="#64748b"/>
<text x="685.0" y="1037" font-size="12" fill="#64748b" font-weight="600">SQLAlchemy 0.52 ms</text>
<rect x="950" y="1023" width="2.00" height="18" rx="4" fill="#8b5cf6"/>
<text x="960.0" y="1037" font-size="12" fill="#8b5cf6" font-weight="600">SQLModel 1.17 ms</text>
<text x="42" y="1063" font-size="12" fill="#94a3b8" font-weight="500">base/head 1.03x</text>
<text x="42" y="1098" font-size="14" fill="#e2e8f0" font-weight="600">serialize nested payloads (400) · diagnostic</text>
<rect x="400" y="1081" width="2.00" height="18" rx="4" fill="#14b8a6"/>
<text x="410.0" y="1095" font-size="12" fill="#14b8a6" font-weight="600">Ormdantic 0.28 ms</text>
<rect x="675" y="1081" width="2.00" height="18" rx="4" fill="#64748b"/>
<text x="685.0" y="1095" font-size="12" fill="#64748b" font-weight="600">SQLAlchemy 0.27 ms</text>
<rect x="950" y="1081" width="2.00" height="18" rx="4" fill="#8b5cf6"/>
<text x="960.0" y="1095" font-size="12" fill="#8b5cf6" font-weight="600">SQLModel 0.36 ms</text>
<text x="42" y="1121" font-size="12" fill="#94a3b8" font-weight="500">base/head 1.24x</text>
<text x="42" y="1156" font-size="14" fill="#e2e8f0" font-weight="600">hydrate relationship results (400)</text>
<rect x="400" y="1139" width="2.00" height="18" rx="4" fill="#14b8a6"/>
<text x="410.0" y="1153" font-size="12" fill="#14b8a6" font-weight="600">Ormdantic 6.01 ms</text>
<rect x="675" y="1139" width="2.00" height="18" rx="4" fill="#64748b"/>
<text x="685.0" y="1153" font-size="12" fill="#64748b" font-weight="600">SQLAlchemy 6.17 ms</text>
<rect x="950" y="1139" width="2.00" height="18" rx="4" fill="#8b5cf6"/>
<text x="960.0" y="1153" font-size="12" fill="#8b5cf6" font-weight="600">SQLModel 6.37 ms</text>
<text x="42" y="1179" font-size="12" fill="#94a3b8" font-weight="500">base/head 1.07x</text>
<text x="42" y="1214" font-size="14" fill="#e2e8f0" font-weight="600">one-to-many relationship loading (400)</text>
<rect x="400" y="1197" width="2.00" height="18" rx="4" fill="#14b8a6"/>
<text x="410.0" y="1211" font-size="12" fill="#14b8a6" font-weight="600">Ormdantic 2.28 ms</text>
<rect x="675" y="1197" width="2.00" height="18" rx="4" fill="#64748b"/>
<text x="685.0" y="1211" font-size="12" fill="#64748b" font-weight="600">SQLAlchemy 3.80 ms</text>
<rect x="950" y="1197" width="2.00" height="18" rx="4" fill="#8b5cf6"/>
<text x="960.0" y="1211" font-size="12" fill="#8b5cf6" font-weight="600">SQLModel 3.99 ms</text>
<text x="42" y="1237" font-size="12" fill="#94a3b8" font-weight="500">base/head 1.07x</text>
<text x="42" y="1272" font-size="14" fill="#e2e8f0" font-weight="600">many-to-one relationship loading (400)</text>
<rect x="400" y="1255" width="2.00" height="18" rx="4" fill="#14b8a6"/>
<text x="410.0" y="1269" font-size="12" fill="#14b8a6" font-weight="600">Ormdantic 2.37 ms</text>
<rect x="675" y="1255" width="2.00" height="18" rx="4" fill="#64748b"/>
<text x="685.0" y="1269" font-size="12" fill="#64748b" font-weight="600">SQLAlchemy 3.54 ms</text>
<rect x="950" y="1255" width="2.00" height="18" rx="4" fill="#8b5cf6"/>
<text x="960.0" y="1269" font-size="12" fill="#8b5cf6" font-weight="600">SQLModel 3.78 ms</text>
<text x="42" y="1295" font-size="12" fill="#94a3b8" font-weight="500">base/head 1.07x</text>
<text x="42" y="1330" font-size="14" fill="#e2e8f0" font-weight="600">nested relationship loading (400)</text>
<rect x="400" y="1313" width="2.00" height="18" rx="4" fill="#14b8a6"/>
<text x="410.0" y="1327" font-size="12" fill="#14b8a6" font-weight="600">Ormdantic 5.16 ms</text>
<rect x="675" y="1313" width="2.00" height="18" rx="4" fill="#64748b"/>
<text x="685.0" y="1327" font-size="12" fill="#64748b" font-weight="600">SQLAlchemy 7.34 ms</text>
<rect x="950" y="1313" width="2.00" height="18" rx="4" fill="#8b5cf6"/>
<text x="960.0" y="1327" font-size="12" fill="#8b5cf6" font-weight="600">SQLModel 8.44 ms</text>
<text x="42" y="1353" font-size="12" fill="#94a3b8" font-weight="500">base/head 1.04x</text>
</svg>
